<svg width="24" height="24" viewBox="0 0 24 24" fill="none" xmlns="http://www.w3.org/2000/svg">
<path d="M9 6H21M9 12H21M9 18H17M4 7C4.26522 7 4.51957 6.89464 4.70711 6.70711C4.89464 6.51957 5 6.26522 5 6C5 5.73478 4.89464 5.48043 4.70711 5.29289C4.51957 5.10536 4.26522 5 4 5C3.73478 5 3.48043 5.10536 3.29289 5.29289C3.10536 5.48043 3 5.73478 3 6C3 6.26522 3.10536 6.51957 3.29289 6.70711C3.48043 6.89464 3.73478 7 4 7ZM4 13C4.26522 13 4.51957 12.8946 4.70711 12.7071C4.89464 12.5196 5 12.2652 5 12C5 11.7348 4.89464 11.4804 4.70711 11.2929C4.51957 11.1054 4.26522 11 4 11C3.73478 11 3.48043 11.1054 3.29289 11.2929C3.10536 11.4804 3 11.7348 3 12C3 12.2652 3.10536 12.5196 3.29289 12.7071C3.48043 12.8946 3.73478 13 4 13ZM4 19C4.26522 19 4.51957 18.8946 4.70711 18.7071C4.89464 18.5196 5 18.2652 5 18C5 17.7348 4.89464 17.4804 4.70711 17.2929C4.51957 17.1054 4.26522 17 4 17C3.73478 17 3.48043 17.1054 3.29289 17.2929C3.10536 17.4804 3 17.7348 3 18C3 18.2652 3.10536 18.5196 3.29289 18.7071C3.48043 18.8946 3.73478 19 4 19Z" stroke="black" stroke-width="2" stroke-linecap="round"/>
</svg>
